<svg width="2265" height="2806" viewBox="0 0 2265 2806" fill="none" xmlns="http://www.w3.org/2000/svg">
<rect x="120" y="69" width="73" height="432" fill="#D9D9D9"/>
<rect x="335" y="75" width="75" height="426" fill="#D9D9D9"/>
<rect x="424" y="73" width="104" height="426" fill="#D9D9D9"/>
<rect x="198.183" y="74.8705" width="74.3318" height="426.294" transform="rotate(-7.37314 198.183 74.8705)" fill="#D9D9D9"/>
<rect x="534" y="78.8004" width="76.3679" height="430.075" transform="rotate(-7.37314 534 78.8004)" fill="#D9D9D9"/>
<rect x="679" y="350" width="436" height="73" fill="#D9D9D9"/>
<rect x="679" y="429" width="436" height="72" fill="#D9D9D9"/>
<rect x="1186.98" y="73.2572" width="75" height="423.725" transform="rotate(4.05681 1186.98 73.2572)" fill="#D9D9D9"/>
<rect x="1265" y="73" width="108" height="428" fill="#D9D9D9"/>
<rect x="1377.78" y="76.2212" width="77.469" height="430.225" transform="rotate(-7.19438 1377.78 76.2212)" fill="#D9D9D9"/>
<rect x="1515" y="29" width="78" height="472" fill="#D9D9D9"/>
<rect x="1598" y="73" width="75" height="428" fill="#D9D9D9"/>
<rect x="1677" y="73" width="108" height="430" fill="#D9D9D9"/>
<rect x="1791" y="73" width="104" height="430" fill="#D9D9D9"/>
<rect x="1912.62" y="71" width="74.0296" height="430.62" transform="rotate(1.28743 1912.62 71)" fill="#D9D9D9"/>
<rect x="1992" y="73" width="98" height="428" fill="#D9D9D9"/>
<rect x="2099" y="73" width="75" height="430" fill="#D9D9D9"/>
<rect x="2099" y="747" width="75" height="428" fill="#D9D9D9"/>
<rect x="1881" y="642" width="77" height="530" fill="#D9D9D9"/>
<rect x="1965.86" y="747.567" width="103.877" height="430.313" transform="rotate(-2.97849 1965.86 747.567)" fill="#D9D9D9"/>
<rect x="1104" y="785" width="438" height="71" fill="#D9D9D9"/>
<rect x="1081" y="863" width="439" height="72" fill="#D9D9D9"/>
<rect x="1117" y="941" width="438" height="75" fill="#D9D9D9"/>
<rect x="1043" y="1021" width="440" height="73" fill="#D9D9D9"/>
<rect x="1095" y="1100" width="438" height="73" fill="#D9D9D9"/>
<rect x="117" y="746" width="77" height="429" fill="#D9D9D9"/>
<rect x="215.451" y="744.57" width="104.643" height="429" transform="rotate(1.68891 215.451 744.57)" fill="#D9D9D9"/>
<rect x="328" y="743" width="75" height="429" fill="#D9D9D9"/>
<rect x="409.494" y="747.529" width="76.1213" height="431" transform="rotate(-2.62417 409.494 747.529)" fill="#D9D9D9"/>
<rect x="515" y="746" width="73" height="429" fill="#D9D9D9"/>
<rect x="595" y="746" width="77" height="429" fill="#D9D9D9"/>
<rect x="679" y="702" width="75" height="473" fill="#D9D9D9"/>
<rect x="136" y="1414" width="97" height="431" fill="#D9D9D9"/>
<rect x="244" y="1314" width="74" height="531" fill="#D9D9D9"/>
<path d="M328.032 1418.54L402.635 1415.04L422.861 1845.81L348.258 1849.32L328.032 1418.54Z" fill="#D9D9D9"/>
<rect x="432" y="1414" width="96" height="431" fill="#D9D9D9"/>
<rect x="536" y="1414" width="72" height="435" fill="#D9D9D9"/>
<rect x="616" y="1370" width="74" height="479" fill="#D9D9D9"/>
<rect x="696.888" y="1418.91" width="97.2804" height="430.406" transform="rotate(-2.14002 696.888 1418.91)" fill="#D9D9D9"/>
<rect x="819" y="1415" width="74" height="430" fill="#D9D9D9"/>
<rect x="943" y="1537" width="438" height="72" fill="#D9D9D9"/>
<rect x="906" y="1614" width="438" height="77" fill="#D9D9D9"/>
<rect x="943" y="1695" width="438" height="73" fill="#D9D9D9"/>
<rect x="906" y="1773" width="438" height="75" fill="#D9D9D9"/>
<rect x="1398" y="1316" width="76" height="532" fill="#D9D9D9"/>
<rect x="1532" y="1695" width="438" height="73" fill="#D9D9D9"/>
<rect x="1498" y="1773" width="435" height="75" fill="#D9D9D9"/>
<rect x="1998" y="1416" width="75" height="428" fill="#D9D9D9"/>
<rect x="2077.25" y="1415.57" width="75" height="435.842" transform="rotate(-3.38888 2077.25 1415.57)" fill="#D9D9D9"/>
<rect x="2054" y="2088" width="75" height="429" fill="#D9D9D9"/>
<rect x="1943.41" y="2089" width="105.853" height="432.684" transform="rotate(1.92958 1943.41 2089)" fill="#D9D9D9"/>
<rect x="1852" y="1989" width="72" height="532" fill="#D9D9D9"/>
<rect x="1770" y="1989" width="75" height="532" fill="#D9D9D9"/>
<rect x="1691" y="1989" width="74" height="532" fill="#D9D9D9"/>
<rect x="1586" y="2092" width="95" height="429" fill="#D9D9D9"/>
<rect x="1482" y="2092" width="96" height="429" fill="#D9D9D9"/>
<rect x="1022" y="2209" width="437" height="75" fill="#D9D9D9"/>
<rect x="996" y="2290" width="435" height="73" fill="#D9D9D9"/>
<rect x="1030" y="2369" width="439" height="74" fill="#D9D9D9"/>
<rect x="996" y="2448" width="435" height="73" fill="#D9D9D9"/>
<rect x="867" y="2091" width="97" height="430" fill="#D9D9D9"/>
<rect x="765" y="2091" width="96" height="430" fill="#D9D9D9"/>
<rect x="682" y="1987" width="74" height="534" fill="#D9D9D9"/>
<rect x="600" y="1987" width="76" height="534" fill="#D9D9D9"/>
<rect x="157" y="2370" width="436" height="72" fill="#D9D9D9"/>
<rect x="121" y="2448" width="436" height="73" fill="#D9D9D9"/>
</svg>
