<?xml version="1.0" encoding="UTF-8"?>
<svg xmlns="http://www.w3.org/2000/svg" viewBox="0 0 1000 1250" preserveAspectRatio="xMidYMid meet">
  <defs>
    <linearGradient id="paper" x1="0" y1="0" x2="0" y2="1">
      <stop offset="0" stop-color="#fdfaf2"/>
      <stop offset="1" stop-color="#f6efdf"/>
    </linearGradient>
  </defs>

  <!-- Background -->
  <rect x="0" y="0" width="1000" height="1250" fill="url(#paper)"/>

  <!-- Shelf wood planks -->
  
    <rect x="20" y="287.75" width="960" height="14"
          rx="3" ry="3" fill="#caa97a" stroke="#7a5a32" stroke-width="1.5"/>
    <rect x="20" y="301.75" width="960" height="6"
          fill="#a8895b" opacity="0.7"/>
  
    <rect x="20" y="587.75" width="960" height="14"
          rx="3" ry="3" fill="#caa97a" stroke="#7a5a32" stroke-width="1.5"/>
    <rect x="20" y="601.75" width="960" height="6"
          fill="#a8895b" opacity="0.7"/>
  
    <rect x="20" y="887.75" width="960" height="14"
          rx="3" ry="3" fill="#caa97a" stroke="#7a5a32" stroke-width="1.5"/>
    <rect x="20" y="901.75" width="960" height="6"
          fill="#a8895b" opacity="0.7"/>
  
    <rect x="20" y="1187.75" width="960" height="14"
          rx="3" ry="3" fill="#caa97a" stroke="#7a5a32" stroke-width="1.5"/>
    <rect x="20" y="1201.75" width="960" height="6"
          fill="#a8895b" opacity="0.7"/>
  

  <!-- Decorative plants between shelves (placed in gaps inside each shelf) -->
  
    <g transform="translate(265 87.50000000000001) scale(1.1)">
      <ellipse cx="0" cy="20" rx="22" ry="6" fill="#d6c5a8" stroke="#8b6f47" stroke-width="1.5"/>
      <path d="M 0,18 Q -18,-8 -8,-30 Q 0,-22 0,18 Z" fill="#7fa872" stroke="#3d5a3a" stroke-width="1"/>
      <path d="M 0,18 Q 18,-12 10,-26 Q 0,-18 0,18 Z" fill="#9bbe8c" stroke="#3d5a3a" stroke-width="1"/>
      <path d="M 0,18 Q -4,-20 4,-30 Q 6,-15 0,18 Z" fill="#6b9560" stroke="#3d5a3a" stroke-width="1"/>
    </g>
  
  
    <g transform="translate(410 387.5) scale(1)">
      <ellipse cx="0" cy="20" rx="22" ry="6" fill="#d6c5a8" stroke="#8b6f47" stroke-width="1.5"/>
      <path d="M 0,18 Q -18,-8 -8,-30 Q 0,-22 0,18 Z" fill="#7fa872" stroke="#3d5a3a" stroke-width="1"/>
      <path d="M 0,18 Q 18,-12 10,-26 Q 0,-18 0,18 Z" fill="#9bbe8c" stroke="#3d5a3a" stroke-width="1"/>
      <path d="M 0,18 Q -4,-20 4,-30 Q 6,-15 0,18 Z" fill="#6b9560" stroke="#3d5a3a" stroke-width="1"/>
    </g>
  
  
    <g transform="translate(710 387.5) scale(0.95)">
      <ellipse cx="0" cy="20" rx="22" ry="6" fill="#d6c5a8" stroke="#8b6f47" stroke-width="1.5"/>
      <path d="M 0,18 Q -18,-8 -8,-30 Q 0,-22 0,18 Z" fill="#7fa872" stroke="#3d5a3a" stroke-width="1"/>
      <path d="M 0,18 Q 18,-12 10,-26 Q 0,-18 0,18 Z" fill="#9bbe8c" stroke="#3d5a3a" stroke-width="1"/>
      <path d="M 0,18 Q -4,-20 4,-30 Q 6,-15 0,18 Z" fill="#6b9560" stroke="#3d5a3a" stroke-width="1"/>
    </g>
  
  
    <g transform="translate(345 687.5) scale(0.95)">
      <ellipse cx="0" cy="20" rx="22" ry="6" fill="#d6c5a8" stroke="#8b6f47" stroke-width="1.5"/>
      <path d="M 0,18 Q -18,-8 -8,-30 Q 0,-22 0,18 Z" fill="#7fa872" stroke="#3d5a3a" stroke-width="1"/>
      <path d="M 0,18 Q 18,-12 10,-26 Q 0,-18 0,18 Z" fill="#9bbe8c" stroke="#3d5a3a" stroke-width="1"/>
      <path d="M 0,18 Q -4,-20 4,-30 Q 6,-15 0,18 Z" fill="#6b9560" stroke="#3d5a3a" stroke-width="1"/>
    </g>
  
  
    <g transform="translate(785 687.5) scale(0.9)">
      <ellipse cx="0" cy="20" rx="22" ry="6" fill="#d6c5a8" stroke="#8b6f47" stroke-width="1.5"/>
      <path d="M 0,18 Q -18,-8 -8,-30 Q 0,-22 0,18 Z" fill="#7fa872" stroke="#3d5a3a" stroke-width="1"/>
      <path d="M 0,18 Q 18,-12 10,-26 Q 0,-18 0,18 Z" fill="#9bbe8c" stroke="#3d5a3a" stroke-width="1"/>
      <path d="M 0,18 Q -4,-20 4,-30 Q 6,-15 0,18 Z" fill="#6b9560" stroke="#3d5a3a" stroke-width="1"/>
    </g>
  
  
    <g transform="translate(385 987.5) scale(0.95)">
      <ellipse cx="0" cy="20" rx="22" ry="6" fill="#d6c5a8" stroke="#8b6f47" stroke-width="1.5"/>
      <path d="M 0,18 Q -18,-8 -8,-30 Q 0,-22 0,18 Z" fill="#7fa872" stroke="#3d5a3a" stroke-width="1"/>
      <path d="M 0,18 Q 18,-12 10,-26 Q 0,-18 0,18 Z" fill="#9bbe8c" stroke="#3d5a3a" stroke-width="1"/>
      <path d="M 0,18 Q -4,-20 4,-30 Q 6,-15 0,18 Z" fill="#6b9560" stroke="#3d5a3a" stroke-width="1"/>
    </g>
  

  <!-- Books -->
  
      <g>
        <rect x="50.0" y="50.0" width="34.0" height="225.0"
              rx="1.5" ry="1.5" fill="#e8d4a4" stroke="#5b4226" stroke-width="1.4"/>
        
        <text x="67" y="162.5" transform="rotate(-90 67 162.5)"
              text-anchor="middle" dominant-baseline="middle"
              font-family="'Noto Sans KR','Apple SD Gothic Neo',sans-serif"
              font-size="13" font-weight="700" fill="#3d2a16">
          창세기
        </text>
      
      </g>
    

      <g>
        <rect x="87.0" y="50.0" width="34.0" height="225.0"
              rx="1.5" ry="1.5" fill="#dfc89a" stroke="#5b4226" stroke-width="1.4"/>
        
        <text x="104" y="162.5" transform="rotate(-90 104 162.5)"
              text-anchor="middle" dominant-baseline="middle"
              font-family="'Noto Sans KR','Apple SD Gothic Neo',sans-serif"
              font-size="13" font-weight="700" fill="#3d2a16">
          출애굽기
        </text>
      
      </g>
    

      <g>
        <rect x="124.0" y="50.0" width="34.0" height="225.0"
              rx="1.5" ry="1.5" fill="#d4bd8c" stroke="#5b4226" stroke-width="1.4"/>
        
        <text x="141" y="162.5" transform="rotate(-90 141 162.5)"
              text-anchor="middle" dominant-baseline="middle"
              font-family="'Noto Sans KR','Apple SD Gothic Neo',sans-serif"
              font-size="13" font-weight="700" fill="#3d2a16">
          레위기
        </text>
      
      </g>
    

      <g>
        <rect x="161.0" y="50.0" width="34.0" height="225.0"
              rx="1.5" ry="1.5" fill="#c9b380" stroke="#5b4226" stroke-width="1.4"/>
        
        <text x="178.00000000000003" y="162.5" transform="rotate(-90 178.00000000000003 162.5)"
              text-anchor="middle" dominant-baseline="middle"
              font-family="'Noto Sans KR','Apple SD Gothic Neo',sans-serif"
              font-size="13" font-weight="700" fill="#3d2a16">
          민수기
        </text>
      
      </g>
    

      <g>
        <rect x="198.0" y="50.0" width="34.0" height="225.0"
              rx="1.5" ry="1.5" fill="#bea876" stroke="#5b4226" stroke-width="1.4"/>
        
        <text x="214.99999999999997" y="162.5" transform="rotate(-90 214.99999999999997 162.5)"
              text-anchor="middle" dominant-baseline="middle"
              font-family="'Noto Sans KR','Apple SD Gothic Neo',sans-serif"
              font-size="13" font-weight="700" fill="#3d2a16">
          신명기
        </text>
      
      </g>
    

      <g>
        <rect x="350.0" y="190.0" width="150.0" height="45.0"
              rx="1.5" ry="1.5" fill="#e8d4a4" stroke="#5b4226" stroke-width="1.4"/>
        
        <text x="425" y="213.5"
              text-anchor="middle" dominant-baseline="middle"
              font-family="'Noto Sans KR','Apple SD Gothic Neo',sans-serif"
              font-size="13" font-weight="700" fill="#3d2a16">
          여호수아
        </text>
      
      </g>
    

      <g>
        <rect x="350.0" y="238.7" width="150.0" height="45.0"
              rx="1.5" ry="1.5" fill="#dfc89a" stroke="#5b4226" stroke-width="1.4"/>
        
        <text x="425" y="262.25"
              text-anchor="middle" dominant-baseline="middle"
              font-family="'Noto Sans KR','Apple SD Gothic Neo',sans-serif"
              font-size="13" font-weight="700" fill="#3d2a16">
          사사기
        </text>
      
      </g>
    

      <g>
        <rect x="530.0" y="50.0" width="34.0" height="225.0"
              rx="1.5" ry="1.5" fill="#d4bd8c" stroke="#5b4226" stroke-width="1.4"/>
        
        <text x="547" y="162.5" transform="rotate(-90 547 162.5)"
              text-anchor="middle" dominant-baseline="middle"
              font-family="'Noto Sans KR','Apple SD Gothic Neo',sans-serif"
              font-size="13" font-weight="700" fill="#3d2a16">
          룻기
        </text>
      
      </g>
    

      <g>
        <rect x="567.0" y="50.0" width="34.0" height="225.0"
              rx="1.5" ry="1.5" fill="#c9b380" stroke="#5b4226" stroke-width="1.4"/>
        
        <text x="584" y="162.5" transform="rotate(-90 584 162.5)"
              text-anchor="middle" dominant-baseline="middle"
              font-family="'Noto Sans KR','Apple SD Gothic Neo',sans-serif"
              font-size="13" font-weight="700" fill="#3d2a16">
          사무엘상
        </text>
      
      </g>
    

      <g>
        <rect x="604.0" y="50.0" width="34.0" height="225.0"
              rx="1.5" ry="1.5" fill="#bea876" stroke="#5b4226" stroke-width="1.4"/>
        
        <text x="621" y="162.5" transform="rotate(-90 621 162.5)"
              text-anchor="middle" dominant-baseline="middle"
              font-family="'Noto Sans KR','Apple SD Gothic Neo',sans-serif"
              font-size="13" font-weight="700" fill="#3d2a16">
          사무엘하
        </text>
      
      </g>
    

      <g>
        <rect x="641.0" y="50.0" width="34.0" height="225.0"
              rx="1.5" ry="1.5" fill="#e8d4a4" stroke="#5b4226" stroke-width="1.4"/>
        
        <text x="657.9999999999999" y="162.5" transform="rotate(-90 657.9999999999999 162.5)"
              text-anchor="middle" dominant-baseline="middle"
              font-family="'Noto Sans KR','Apple SD Gothic Neo',sans-serif"
              font-size="13" font-weight="700" fill="#3d2a16">
          열왕기상
        </text>
      
      </g>
    

      <g>
        <rect x="678.0" y="50.0" width="34.0" height="225.0"
              rx="1.5" ry="1.5" fill="#dfc89a" stroke="#5b4226" stroke-width="1.4"/>
        
        <text x="695" y="162.5" transform="rotate(-90 695 162.5)"
              text-anchor="middle" dominant-baseline="middle"
              font-family="'Noto Sans KR','Apple SD Gothic Neo',sans-serif"
              font-size="13" font-weight="700" fill="#3d2a16">
          열왕기하
        </text>
      
      </g>
    

      <g>
        <rect x="715.0" y="50.0" width="34.0" height="225.0"
              rx="1.5" ry="1.5" fill="#d4bd8c" stroke="#5b4226" stroke-width="1.4"/>
        
        <text x="732" y="162.5" transform="rotate(-90 732 162.5)"
              text-anchor="middle" dominant-baseline="middle"
              font-family="'Noto Sans KR','Apple SD Gothic Neo',sans-serif"
              font-size="13" font-weight="700" fill="#3d2a16">
          역대상
        </text>
      
      </g>
    

      <g>
        <rect x="752.0" y="50.0" width="34.0" height="225.0"
              rx="1.5" ry="1.5" fill="#c9b380" stroke="#5b4226" stroke-width="1.4"/>
        
        <text x="769" y="162.5" transform="rotate(-90 769 162.5)"
              text-anchor="middle" dominant-baseline="middle"
              font-family="'Noto Sans KR','Apple SD Gothic Neo',sans-serif"
              font-size="13" font-weight="700" fill="#3d2a16">
          역대하
        </text>
      
      </g>
    

      <g>
        <rect x="789.0" y="50.0" width="34.0" height="225.0"
              rx="1.5" ry="1.5" fill="#bea876" stroke="#5b4226" stroke-width="1.4"/>
        
        <text x="806" y="162.5" transform="rotate(-90 806 162.5)"
              text-anchor="middle" dominant-baseline="middle"
              font-family="'Noto Sans KR','Apple SD Gothic Neo',sans-serif"
              font-size="13" font-weight="700" fill="#3d2a16">
          에스라
        </text>
      
      </g>
    

      <g>
        <rect x="826.0" y="50.0" width="34.0" height="225.0"
              rx="1.5" ry="1.5" fill="#e8d4a4" stroke="#5b4226" stroke-width="1.4"/>
        
        <text x="843" y="162.5" transform="rotate(-90 843 162.5)"
              text-anchor="middle" dominant-baseline="middle"
              font-family="'Noto Sans KR','Apple SD Gothic Neo',sans-serif"
              font-size="13" font-weight="700" fill="#3d2a16">
          느헤미야
        </text>
      
      </g>
    

      <g>
        <rect x="863.0" y="50.0" width="34.0" height="225.0"
              rx="1.5" ry="1.5" fill="#dfc89a" stroke="#5b4226" stroke-width="1.4"/>
        
        <text x="880" y="162.5" transform="rotate(-90 880 162.5)"
              text-anchor="middle" dominant-baseline="middle"
              font-family="'Noto Sans KR','Apple SD Gothic Neo',sans-serif"
              font-size="13" font-weight="700" fill="#3d2a16">
          에스더
        </text>
      
      </g>
    

      <g>
        <rect x="50.0" y="350.0" width="34.0" height="225.0"
              rx="1.5" ry="1.5" fill="#d4bd8c" stroke="#5b4226" stroke-width="1.4"/>
        
        <text x="67" y="462.5" transform="rotate(-90 67 462.5)"
              text-anchor="middle" dominant-baseline="middle"
              font-family="'Noto Sans KR','Apple SD Gothic Neo',sans-serif"
              font-size="13" font-weight="700" fill="#3d2a16">
          욥기
        </text>
      
      </g>
    

      <g>
        <rect x="87.0" y="350.0" width="34.0" height="225.0"
              rx="1.5" ry="1.5" fill="#c9b380" stroke="#5b4226" stroke-width="1.4"/>
        
        <text x="104" y="462.5" transform="rotate(-90 104 462.5)"
              text-anchor="middle" dominant-baseline="middle"
              font-family="'Noto Sans KR','Apple SD Gothic Neo',sans-serif"
              font-size="13" font-weight="700" fill="#3d2a16">
          시편
        </text>
      
      </g>
    

      <g>
        <rect x="124.0" y="350.0" width="34.0" height="225.0"
              rx="1.5" ry="1.5" fill="#bea876" stroke="#5b4226" stroke-width="1.4"/>
        
        <text x="141" y="462.5" transform="rotate(-90 141 462.5)"
              text-anchor="middle" dominant-baseline="middle"
              font-family="'Noto Sans KR','Apple SD Gothic Neo',sans-serif"
              font-size="13" font-weight="700" fill="#3d2a16">
          잠언
        </text>
      
      </g>
    

      <g>
        <rect x="161.0" y="350.0" width="34.0" height="225.0"
              rx="1.5" ry="1.5" fill="#e8d4a4" stroke="#5b4226" stroke-width="1.4"/>
        
        <text x="178.00000000000003" y="462.5" transform="rotate(-90 178.00000000000003 462.5)"
              text-anchor="middle" dominant-baseline="middle"
              font-family="'Noto Sans KR','Apple SD Gothic Neo',sans-serif"
              font-size="13" font-weight="700" fill="#3d2a16">
          전도서
        </text>
      
      </g>
    

      <g>
        <rect x="198.0" y="350.0" width="34.0" height="225.0"
              rx="1.5" ry="1.5" fill="#dfc89a" stroke="#5b4226" stroke-width="1.4"/>
        
        <text x="214.99999999999997" y="462.5" transform="rotate(-90 214.99999999999997 462.5)"
              text-anchor="middle" dominant-baseline="middle"
              font-family="'Noto Sans KR','Apple SD Gothic Neo',sans-serif"
              font-size="13" font-weight="700" fill="#3d2a16">
          아가
        </text>
      
      </g>
    

      <g>
        <rect x="235.0" y="350.0" width="34.0" height="225.0"
              rx="1.5" ry="1.5" fill="#d4bd8c" stroke="#5b4226" stroke-width="1.4"/>
        
        <text x="252" y="462.5" transform="rotate(-90 252 462.5)"
              text-anchor="middle" dominant-baseline="middle"
              font-family="'Noto Sans KR','Apple SD Gothic Neo',sans-serif"
              font-size="13" font-weight="700" fill="#3d2a16">
          이사야
        </text>
      
      </g>
    

      <g>
        <rect x="272.0" y="350.0" width="34.0" height="225.0"
              rx="1.5" ry="1.5" fill="#c9b380" stroke="#5b4226" stroke-width="1.4"/>
        
        <text x="289" y="462.5" transform="rotate(-90 289 462.5)"
              text-anchor="middle" dominant-baseline="middle"
              font-family="'Noto Sans KR','Apple SD Gothic Neo',sans-serif"
              font-size="13" font-weight="700" fill="#3d2a16">
          예레미야
        </text>
      
      </g>
    

      <g>
        <rect x="460.0" y="356.3" width="180.0" height="45.0"
              rx="1.5" ry="1.5" fill="#bea876" stroke="#5b4226" stroke-width="1.4"/>
        
        <text x="550" y="379.75"
              text-anchor="middle" dominant-baseline="middle"
              font-family="'Noto Sans KR','Apple SD Gothic Neo',sans-serif"
              font-size="13" font-weight="700" fill="#3d2a16">
          예레미야애가
        </text>
      
      </g>
    

      <g>
        <rect x="460.0" y="405.0" width="180.0" height="45.0"
              rx="1.5" ry="1.5" fill="#e8d4a4" stroke="#5b4226" stroke-width="1.4"/>
        
        <text x="550" y="428.5"
              text-anchor="middle" dominant-baseline="middle"
              font-family="'Noto Sans KR','Apple SD Gothic Neo',sans-serif"
              font-size="13" font-weight="700" fill="#3d2a16">
          에스겔
        </text>
      
      </g>
    

      <g>
        <rect x="460.0" y="453.8" width="180.0" height="45.0"
              rx="1.5" ry="1.5" fill="#dfc89a" stroke="#5b4226" stroke-width="1.4"/>
        
        <text x="550" y="477.25"
              text-anchor="middle" dominant-baseline="middle"
              font-family="'Noto Sans KR','Apple SD Gothic Neo',sans-serif"
              font-size="13" font-weight="700" fill="#3d2a16">
          다니엘
        </text>
      
      </g>
    

      <g>
        <rect x="460.0" y="502.5" width="180.0" height="45.0"
              rx="1.5" ry="1.5" fill="#d4bd8c" stroke="#5b4226" stroke-width="1.4"/>
        
        <text x="550" y="526"
              text-anchor="middle" dominant-baseline="middle"
              font-family="'Noto Sans KR','Apple SD Gothic Neo',sans-serif"
              font-size="13" font-weight="700" fill="#3d2a16">
          호세아
        </text>
      
      </g>
    

      <g>
        <rect x="460.0" y="551.3" width="180.0" height="45.0"
              rx="1.5" ry="1.5" fill="#c9b380" stroke="#5b4226" stroke-width="1.4"/>
        
        <text x="550" y="574.75"
              text-anchor="middle" dominant-baseline="middle"
              font-family="'Noto Sans KR','Apple SD Gothic Neo',sans-serif"
              font-size="13" font-weight="700" fill="#3d2a16">
          요엘
        </text>
      
      </g>
    

      <g>
        <rect x="760.0" y="350.0" width="34.0" height="225.0"
              rx="1.5" ry="1.5" fill="#bea876" stroke="#5b4226" stroke-width="1.4"/>
        
        <text x="777" y="462.5" transform="rotate(-90 777 462.5)"
              text-anchor="middle" dominant-baseline="middle"
              font-family="'Noto Sans KR','Apple SD Gothic Neo',sans-serif"
              font-size="13" font-weight="700" fill="#3d2a16">
          아모스
        </text>
      
      </g>
    

      <g>
        <rect x="797.0" y="350.0" width="34.0" height="225.0"
              rx="1.5" ry="1.5" fill="#e8d4a4" stroke="#5b4226" stroke-width="1.4"/>
        
        <text x="814" y="462.5" transform="rotate(-90 814 462.5)"
              text-anchor="middle" dominant-baseline="middle"
              font-family="'Noto Sans KR','Apple SD Gothic Neo',sans-serif"
              font-size="13" font-weight="700" fill="#3d2a16">
          오바댜
        </text>
      
      </g>
    

      <g>
        <rect x="834.0" y="350.0" width="34.0" height="225.0"
              rx="1.5" ry="1.5" fill="#dfc89a" stroke="#5b4226" stroke-width="1.4"/>
        
        <text x="851" y="462.5" transform="rotate(-90 851 462.5)"
              text-anchor="middle" dominant-baseline="middle"
              font-family="'Noto Sans KR','Apple SD Gothic Neo',sans-serif"
              font-size="13" font-weight="700" fill="#3d2a16">
          요나
        </text>
      
      </g>
    

      <g>
        <rect x="50.0" y="650.0" width="34.0" height="225.0"
              rx="1.5" ry="1.5" fill="#d4bd8c" stroke="#5b4226" stroke-width="1.4"/>
        
        <text x="67" y="762.5" transform="rotate(-90 67 762.5)"
              text-anchor="middle" dominant-baseline="middle"
              font-family="'Noto Sans KR','Apple SD Gothic Neo',sans-serif"
              font-size="13" font-weight="700" fill="#3d2a16">
          미가
        </text>
      
      </g>
    

      <g>
        <rect x="87.0" y="650.0" width="34.0" height="225.0"
              rx="1.5" ry="1.5" fill="#c9b380" stroke="#5b4226" stroke-width="1.4"/>
        
        <text x="104" y="762.5" transform="rotate(-90 104 762.5)"
              text-anchor="middle" dominant-baseline="middle"
              font-family="'Noto Sans KR','Apple SD Gothic Neo',sans-serif"
              font-size="13" font-weight="700" fill="#3d2a16">
          나훔
        </text>
      
      </g>
    

      <g>
        <rect x="124.0" y="650.0" width="34.0" height="225.0"
              rx="1.5" ry="1.5" fill="#bea876" stroke="#5b4226" stroke-width="1.4"/>
        
        <text x="141" y="762.5" transform="rotate(-90 141 762.5)"
              text-anchor="middle" dominant-baseline="middle"
              font-family="'Noto Sans KR','Apple SD Gothic Neo',sans-serif"
              font-size="13" font-weight="700" fill="#3d2a16">
          하박국
        </text>
      
      </g>
    

      <g>
        <rect x="161.0" y="650.0" width="34.0" height="225.0"
              rx="1.5" ry="1.5" fill="#e8d4a4" stroke="#5b4226" stroke-width="1.4"/>
        
        <text x="178.00000000000003" y="762.5" transform="rotate(-90 178.00000000000003 762.5)"
              text-anchor="middle" dominant-baseline="middle"
              font-family="'Noto Sans KR','Apple SD Gothic Neo',sans-serif"
              font-size="13" font-weight="700" fill="#3d2a16">
          스바냐
        </text>
      
      </g>
    

      <g>
        <rect x="198.0" y="650.0" width="34.0" height="225.0"
              rx="1.5" ry="1.5" fill="#dfc89a" stroke="#5b4226" stroke-width="1.4"/>
        
        <text x="214.99999999999997" y="762.5" transform="rotate(-90 214.99999999999997 762.5)"
              text-anchor="middle" dominant-baseline="middle"
              font-family="'Noto Sans KR','Apple SD Gothic Neo',sans-serif"
              font-size="13" font-weight="700" fill="#3d2a16">
          학개
        </text>
      
      </g>
    

      <g>
        <rect x="235.0" y="650.0" width="34.0" height="225.0"
              rx="1.5" ry="1.5" fill="#d4bd8c" stroke="#5b4226" stroke-width="1.4"/>
        
        <text x="252" y="762.5" transform="rotate(-90 252 762.5)"
              text-anchor="middle" dominant-baseline="middle"
              font-family="'Noto Sans KR','Apple SD Gothic Neo',sans-serif"
              font-size="13" font-weight="700" fill="#3d2a16">
          스가랴
        </text>
      
      </g>
    

      <g>
        <rect x="272.0" y="650.0" width="34.0" height="225.0"
              rx="1.5" ry="1.5" fill="#c9b380" stroke="#5b4226" stroke-width="1.4"/>
        
        <text x="289" y="762.5" transform="rotate(-90 289 762.5)"
              text-anchor="middle" dominant-baseline="middle"
              font-family="'Noto Sans KR','Apple SD Gothic Neo',sans-serif"
              font-size="13" font-weight="700" fill="#3d2a16">
          말라기
        </text>
      
      </g>
    

      <g>
        <rect x="410.0" y="656.3" width="170.0" height="45.0"
              rx="1.5" ry="1.5" fill="#b89f7e" stroke="#5b4226" stroke-width="1.4"/>
        
        <text x="495" y="679.75"
              text-anchor="middle" dominant-baseline="middle"
              font-family="'Noto Sans KR','Apple SD Gothic Neo',sans-serif"
              font-size="13" font-weight="700" fill="#3d2a16">
          마태복음
        </text>
      
      </g>
    

      <g>
        <rect x="410.0" y="705.0" width="170.0" height="45.0"
              rx="1.5" ry="1.5" fill="#e0cdb2" stroke="#5b4226" stroke-width="1.4"/>
        
        <text x="495" y="728.5"
              text-anchor="middle" dominant-baseline="middle"
              font-family="'Noto Sans KR','Apple SD Gothic Neo',sans-serif"
              font-size="13" font-weight="700" fill="#3d2a16">
          마가복음
        </text>
      
      </g>
    

      <g>
        <rect x="410.0" y="753.8" width="170.0" height="45.0"
              rx="1.5" ry="1.5" fill="#d6c2a4" stroke="#5b4226" stroke-width="1.4"/>
        
        <text x="495" y="777.25"
              text-anchor="middle" dominant-baseline="middle"
              font-family="'Noto Sans KR','Apple SD Gothic Neo',sans-serif"
              font-size="13" font-weight="700" fill="#3d2a16">
          누가복음
        </text>
      
      </g>
    

      <g>
        <rect x="410.0" y="802.5" width="170.0" height="45.0"
              rx="1.5" ry="1.5" fill="#cdb796" stroke="#5b4226" stroke-width="1.4"/>
        
        <text x="495" y="826"
              text-anchor="middle" dominant-baseline="middle"
              font-family="'Noto Sans KR','Apple SD Gothic Neo',sans-serif"
              font-size="13" font-weight="700" fill="#3d2a16">
          요한복음
        </text>
      
      </g>
    

      <g>
        <rect x="410.0" y="851.3" width="170.0" height="45.0"
              rx="1.5" ry="1.5" fill="#c2ac8a" stroke="#5b4226" stroke-width="1.4"/>
        
        <text x="495" y="874.75"
              text-anchor="middle" dominant-baseline="middle"
              font-family="'Noto Sans KR','Apple SD Gothic Neo',sans-serif"
              font-size="13" font-weight="700" fill="#3d2a16">
          사도행전
        </text>
      
      </g>
    

      <g>
        <rect x="600.0" y="650.0" width="34.0" height="225.0"
              rx="1.5" ry="1.5" fill="#b89f7e" stroke="#5b4226" stroke-width="1.4"/>
        
        <text x="617" y="762.5" transform="rotate(-90 617 762.5)"
              text-anchor="middle" dominant-baseline="middle"
              font-family="'Noto Sans KR','Apple SD Gothic Neo',sans-serif"
              font-size="13" font-weight="700" fill="#3d2a16">
          로마서
        </text>
      
      </g>
    

      <g>
        <rect x="700.0" y="756.3" width="140.0" height="45.0"
              rx="1.5" ry="1.5" fill="#e0cdb2" stroke="#5b4226" stroke-width="1.4"/>
        
        <text x="770" y="779.75"
              text-anchor="middle" dominant-baseline="middle"
              font-family="'Noto Sans KR','Apple SD Gothic Neo',sans-serif"
              font-size="13" font-weight="700" fill="#3d2a16">
          고린도전서
        </text>
      
      </g>
    

      <g>
        <rect x="700.0" y="805.0" width="140.0" height="45.0"
              rx="1.5" ry="1.5" fill="#d6c2a4" stroke="#5b4226" stroke-width="1.4"/>
        
        <text x="770" y="828.5"
              text-anchor="middle" dominant-baseline="middle"
              font-family="'Noto Sans KR','Apple SD Gothic Neo',sans-serif"
              font-size="13" font-weight="700" fill="#3d2a16">
          고린도후서
        </text>
      
      </g>
    

      <g>
        <rect x="860.0" y="650.0" width="34.0" height="225.0"
              rx="1.5" ry="1.5" fill="#cdb796" stroke="#5b4226" stroke-width="1.4"/>
        
        <text x="877" y="762.5" transform="rotate(-90 877 762.5)"
              text-anchor="middle" dominant-baseline="middle"
              font-family="'Noto Sans KR','Apple SD Gothic Neo',sans-serif"
              font-size="13" font-weight="700" fill="#3d2a16">
          갈라디아서
        </text>
      
      </g>
    

      <g>
        <rect x="897.0" y="650.0" width="34.0" height="225.0"
              rx="1.5" ry="1.5" fill="#c2ac8a" stroke="#5b4226" stroke-width="1.4"/>
        
        <text x="914" y="762.5" transform="rotate(-90 914 762.5)"
              text-anchor="middle" dominant-baseline="middle"
              font-family="'Noto Sans KR','Apple SD Gothic Neo',sans-serif"
              font-size="13" font-weight="700" fill="#3d2a16">
          에베소서
        </text>
      
      </g>
    

      <g>
        <rect x="140.0" y="1087.5" width="160.0" height="45.0"
              rx="1.5" ry="1.5" fill="#b89f7e" stroke="#5b4226" stroke-width="1.4"/>
        
        <text x="220" y="1111"
              text-anchor="middle" dominant-baseline="middle"
              font-family="'Noto Sans KR','Apple SD Gothic Neo',sans-serif"
              font-size="13" font-weight="700" fill="#3d2a16">
          빌립보서
        </text>
      
      </g>
    

      <g>
        <rect x="140.0" y="1136.3" width="160.0" height="45.0"
              rx="1.5" ry="1.5" fill="#e0cdb2" stroke="#5b4226" stroke-width="1.4"/>
        
        <text x="220" y="1159.75"
              text-anchor="middle" dominant-baseline="middle"
              font-family="'Noto Sans KR','Apple SD Gothic Neo',sans-serif"
              font-size="13" font-weight="700" fill="#3d2a16">
          골로새서
        </text>
      
      </g>
    

      <g>
        <rect x="320.0" y="950.0" width="34.0" height="225.0"
              rx="1.5" ry="1.5" fill="#d6c2a4" stroke="#5b4226" stroke-width="1.4"/>
        
        <text x="337" y="1062.5" transform="rotate(-90 337 1062.5)"
              text-anchor="middle" dominant-baseline="middle"
              font-family="'Noto Sans KR','Apple SD Gothic Neo',sans-serif"
              font-size="13" font-weight="700" fill="#3d2a16">
          데살로니가전서
        </text>
      
      </g>
    

      <g>
        <rect x="357.0" y="950.0" width="34.0" height="225.0"
              rx="1.5" ry="1.5" fill="#cdb796" stroke="#5b4226" stroke-width="1.4"/>
        
        <text x="374" y="1062.5" transform="rotate(-90 374 1062.5)"
              text-anchor="middle" dominant-baseline="middle"
              font-family="'Noto Sans KR','Apple SD Gothic Neo',sans-serif"
              font-size="13" font-weight="700" fill="#3d2a16">
          데살로니가후서
        </text>
      
      </g>
    

      <g>
        <rect x="394.0" y="950.0" width="34.0" height="225.0"
              rx="1.5" ry="1.5" fill="#c2ac8a" stroke="#5b4226" stroke-width="1.4"/>
        
        <text x="411" y="1062.5" transform="rotate(-90 411 1062.5)"
              text-anchor="middle" dominant-baseline="middle"
              font-family="'Noto Sans KR','Apple SD Gothic Neo',sans-serif"
              font-size="13" font-weight="700" fill="#3d2a16">
          디모데전서
        </text>
      
      </g>
    

      <g>
        <rect x="431.0" y="950.0" width="34.0" height="225.0"
              rx="1.5" ry="1.5" fill="#b89f7e" stroke="#5b4226" stroke-width="1.4"/>
        
        <text x="448" y="1062.5" transform="rotate(-90 448 1062.5)"
              text-anchor="middle" dominant-baseline="middle"
              font-family="'Noto Sans KR','Apple SD Gothic Neo',sans-serif"
              font-size="13" font-weight="700" fill="#3d2a16">
          디모데후서
        </text>
      
      </g>
    

      <g>
        <rect x="490.0" y="993.8" width="140.0" height="45.0"
              rx="1.5" ry="1.5" fill="#e0cdb2" stroke="#5b4226" stroke-width="1.4"/>
        
        <text x="560" y="1017.25"
              text-anchor="middle" dominant-baseline="middle"
              font-family="'Noto Sans KR','Apple SD Gothic Neo',sans-serif"
              font-size="13" font-weight="700" fill="#3d2a16">
          디도서
        </text>
      
      </g>
    

      <g>
        <rect x="490.0" y="1042.5" width="140.0" height="45.0"
              rx="1.5" ry="1.5" fill="#d6c2a4" stroke="#5b4226" stroke-width="1.4"/>
        
        <text x="560" y="1066"
              text-anchor="middle" dominant-baseline="middle"
              font-family="'Noto Sans KR','Apple SD Gothic Neo',sans-serif"
              font-size="13" font-weight="700" fill="#3d2a16">
          빌레몬서
        </text>
      
      </g>
    

      <g>
        <rect x="490.0" y="1091.3" width="140.0" height="45.0"
              rx="1.5" ry="1.5" fill="#cdb796" stroke="#5b4226" stroke-width="1.4"/>
        
        <text x="560" y="1114.75"
              text-anchor="middle" dominant-baseline="middle"
              font-family="'Noto Sans KR','Apple SD Gothic Neo',sans-serif"
              font-size="13" font-weight="700" fill="#3d2a16">
          히브리서
        </text>
      
      </g>
    

      <g>
        <rect x="490.0" y="1140.0" width="140.0" height="45.0"
              rx="1.5" ry="1.5" fill="#c2ac8a" stroke="#5b4226" stroke-width="1.4"/>
        
        <text x="560" y="1163.5"
              text-anchor="middle" dominant-baseline="middle"
              font-family="'Noto Sans KR','Apple SD Gothic Neo',sans-serif"
              font-size="13" font-weight="700" fill="#3d2a16">
          야고보서
        </text>
      
      </g>
    

      <g>
        <rect x="660.0" y="950.0" width="34.0" height="225.0"
              rx="1.5" ry="1.5" fill="#b89f7e" stroke="#5b4226" stroke-width="1.4"/>
        
        <text x="677" y="1062.5" transform="rotate(-90 677 1062.5)"
              text-anchor="middle" dominant-baseline="middle"
              font-family="'Noto Sans KR','Apple SD Gothic Neo',sans-serif"
              font-size="13" font-weight="700" fill="#3d2a16">
          베드로전서
        </text>
      
      </g>
    

      <g>
        <rect x="697.0" y="950.0" width="34.0" height="225.0"
              rx="1.5" ry="1.5" fill="#e0cdb2" stroke="#5b4226" stroke-width="1.4"/>
        
        <text x="714" y="1062.5" transform="rotate(-90 714 1062.5)"
              text-anchor="middle" dominant-baseline="middle"
              font-family="'Noto Sans KR','Apple SD Gothic Neo',sans-serif"
              font-size="13" font-weight="700" fill="#3d2a16">
          베드로후서
        </text>
      
      </g>
    

      <g>
        <rect x="734.0" y="950.0" width="34.0" height="225.0"
              rx="1.5" ry="1.5" fill="#d6c2a4" stroke="#5b4226" stroke-width="1.4"/>
        
        <text x="751" y="1062.5" transform="rotate(-90 751 1062.5)"
              text-anchor="middle" dominant-baseline="middle"
              font-family="'Noto Sans KR','Apple SD Gothic Neo',sans-serif"
              font-size="13" font-weight="700" fill="#3d2a16">
          요한일서
        </text>
      
      </g>
    

      <g>
        <rect x="771.0" y="950.0" width="34.0" height="225.0"
              rx="1.5" ry="1.5" fill="#cdb796" stroke="#5b4226" stroke-width="1.4"/>
        
        <text x="788" y="1062.5" transform="rotate(-90 788 1062.5)"
              text-anchor="middle" dominant-baseline="middle"
              font-family="'Noto Sans KR','Apple SD Gothic Neo',sans-serif"
              font-size="13" font-weight="700" fill="#3d2a16">
          요한이서
        </text>
      
      </g>
    

      <g>
        <rect x="808.0" y="950.0" width="34.0" height="225.0"
              rx="1.5" ry="1.5" fill="#c2ac8a" stroke="#5b4226" stroke-width="1.4"/>
        
        <text x="825" y="1062.5" transform="rotate(-90 825 1062.5)"
              text-anchor="middle" dominant-baseline="middle"
              font-family="'Noto Sans KR','Apple SD Gothic Neo',sans-serif"
              font-size="13" font-weight="700" fill="#3d2a16">
          요한삼서
        </text>
      
      </g>
    

      <g>
        <rect x="845.0" y="950.0" width="34.0" height="225.0"
              rx="1.5" ry="1.5" fill="#b89f7e" stroke="#5b4226" stroke-width="1.4"/>
        
        <text x="862" y="1062.5" transform="rotate(-90 862 1062.5)"
              text-anchor="middle" dominant-baseline="middle"
              font-family="'Noto Sans KR','Apple SD Gothic Neo',sans-serif"
              font-size="13" font-weight="700" fill="#3d2a16">
          유다서
        </text>
      
      </g>
    

      <g>
        <rect x="882.0" y="950.0" width="34.0" height="225.0"
              rx="1.5" ry="1.5" fill="#e0cdb2" stroke="#5b4226" stroke-width="1.4"/>
        
        <text x="899" y="1062.5" transform="rotate(-90 899 1062.5)"
              text-anchor="middle" dominant-baseline="middle"
              font-family="'Noto Sans KR','Apple SD Gothic Neo',sans-serif"
              font-size="13" font-weight="700" fill="#3d2a16">
          요한계시록
        </text>
      
      </g>
    
</svg>
