<svg width="2061" height="2496" viewBox="0 0 2061 2496" fill="none" xmlns="http://www.w3.org/2000/svg">
<rect x="3" y="40" width="73" height="432" fill="#D9D9D9"/>
<rect x="218" y="46" width="75" height="426" fill="#D9D9D9"/>
<rect x="307" y="44" width="104" height="426" fill="#D9D9D9"/>
<rect x="81.1835" y="45.8705" width="74.3318" height="426.294" transform="rotate(-7.37314 81.1835 45.8705)" fill="#D9D9D9"/>
<rect x="417" y="49.8004" width="76.3679" height="430.075" transform="rotate(-7.37314 417 49.8004)" fill="#D9D9D9"/>
<rect x="562" y="321" width="436" height="73" fill="#D9D9D9"/>
<rect x="562" y="400" width="436" height="72" fill="#D9D9D9"/>
<rect x="1069.98" y="44.2572" width="75" height="423.725" transform="rotate(4.05681 1069.98 44.2572)" fill="#D9D9D9"/>
<rect x="1148" y="44" width="108" height="428" fill="#D9D9D9"/>
<rect x="1260.78" y="47.2212" width="77.469" height="430.225" transform="rotate(-7.19438 1260.78 47.2212)" fill="#D9D9D9"/>
<rect x="1398" width="78" height="472" fill="#D9D9D9"/>
<rect x="1481" y="44" width="75" height="428" fill="#D9D9D9"/>
<rect x="1560" y="44" width="108" height="430" fill="#D9D9D9"/>
<rect x="1674" y="44" width="104" height="430" fill="#D9D9D9"/>
<rect x="1795.62" y="42" width="74.0296" height="430.62" transform="rotate(1.28743 1795.62 42)" fill="#D9D9D9"/>
<rect x="1875" y="44" width="98" height="428" fill="#D9D9D9"/>
<rect x="1982" y="44" width="75" height="430" fill="#D9D9D9"/>
<rect x="1982" y="718" width="75" height="428" fill="#D9D9D9"/>
<rect x="1764" y="613" width="77" height="530" fill="#D9D9D9"/>
<rect x="1848.86" y="718.567" width="103.877" height="430.313" transform="rotate(-2.97849 1848.86 718.567)" fill="#D9D9D9"/>
<rect x="987" y="756" width="438" height="71" fill="#D9D9D9"/>
<rect x="964" y="834" width="439" height="72" fill="#D9D9D9"/>
<rect x="1000" y="912" width="438" height="75" fill="#D9D9D9"/>
<rect x="926" y="992" width="440" height="73" fill="#D9D9D9"/>
<rect x="978" y="1071" width="438" height="73" fill="#D9D9D9"/>
<rect y="717" width="77" height="429" fill="#D9D9D9"/>
<rect x="98.4507" y="715.57" width="104.643" height="429" transform="rotate(1.68891 98.4507 715.57)" fill="#D9D9D9"/>
<rect x="211" y="714" width="75" height="429" fill="#D9D9D9"/>
<rect x="292.494" y="718.529" width="76.1213" height="431" transform="rotate(-2.62417 292.494 718.529)" fill="#D9D9D9"/>
<rect x="398" y="717" width="73" height="429" fill="#D9D9D9"/>
<rect x="478" y="717" width="77" height="429" fill="#D9D9D9"/>
<rect x="562" y="673" width="75" height="473" fill="#D9D9D9"/>
<rect x="19" y="1385" width="97" height="431" fill="#D9D9D9"/>
<rect x="127" y="1285" width="74" height="531" fill="#D9D9D9"/>
<path d="M211.032 1389.54L285.635 1386.04L305.861 1816.81L231.258 1820.32L211.032 1389.54Z" fill="#D9D9D9"/>
<rect x="315" y="1385" width="96" height="431" fill="#D9D9D9"/>
<rect x="419" y="1385" width="72" height="435" fill="#D9D9D9"/>
<rect x="499" y="1341" width="74" height="479" fill="#D9D9D9"/>
<rect x="579.888" y="1389.91" width="97.2804" height="430.406" transform="rotate(-2.14002 579.888 1389.91)" fill="#D9D9D9"/>
<rect x="702" y="1386" width="74" height="430" fill="#D9D9D9"/>
<rect x="826" y="1508" width="438" height="72" fill="#D9D9D9"/>
<rect x="789" y="1585" width="438" height="77" fill="#D9D9D9"/>
<rect x="826" y="1666" width="438" height="73" fill="#D9D9D9"/>
<rect x="789" y="1744" width="438" height="75" fill="#D9D9D9"/>
<rect x="1281" y="1287" width="76" height="532" fill="#D9D9D9"/>
<rect x="1415" y="1666" width="438" height="73" fill="#D9D9D9"/>
<rect x="1381" y="1744" width="435" height="75" fill="#D9D9D9"/>
<rect x="1881" y="1387" width="75" height="428" fill="#D9D9D9"/>
<rect x="1960.25" y="1386.57" width="75" height="435.842" transform="rotate(-3.38888 1960.25 1386.57)" fill="#D9D9D9"/>
<rect x="1937" y="2059" width="75" height="429" fill="#D9D9D9"/>
<rect x="1826.41" y="2060" width="105.853" height="432.684" transform="rotate(1.92958 1826.41 2060)" fill="#D9D9D9"/>
<rect x="1735" y="1960" width="72" height="532" fill="#D9D9D9"/>
<rect x="1653" y="1960" width="75" height="532" fill="#D9D9D9"/>
<rect x="1574" y="1960" width="74" height="532" fill="#D9D9D9"/>
<rect x="1469" y="2063" width="95" height="429" fill="#D9D9D9"/>
<rect x="1365" y="2063" width="96" height="429" fill="#D9D9D9"/>
<rect x="905" y="2180" width="437" height="75" fill="#D9D9D9"/>
<rect x="879" y="2261" width="435" height="73" fill="#D9D9D9"/>
<rect x="913" y="2340" width="439" height="74" fill="#D9D9D9"/>
<rect x="879" y="2419" width="435" height="73" fill="#D9D9D9"/>
<rect x="750" y="2062" width="97" height="430" fill="#D9D9D9"/>
<rect x="648" y="2062" width="96" height="430" fill="#D9D9D9"/>
<rect x="565" y="1958" width="74" height="534" fill="#D9D9D9"/>
<rect x="483" y="1958" width="76" height="534" fill="#D9D9D9"/>
<rect x="40" y="2341" width="436" height="72" fill="#D9D9D9"/>
<rect x="4" y="2419" width="436" height="73" fill="#D9D9D9"/>
</svg>
