<svg width="64" height="64" viewBox="0 0 64 64" fill="none" xmlns="http://www.w3.org/2000/svg">
  <!-- Bible Foundation - Curved Open Book -->
  <path d="M 4 56 C 12 56 22 58 32 62 C 42 58 52 56 60 56 L 60 59 C 52 59 42 61 32 65 C 22 61 12 59 4 59 Z" fill="#2d1e16" />
  <path d="M 6 54 C 14 54 23 56 32 60 C 41 56 50 54 58 54 L 58 57 C 50 57 41 59 32 63 C 23 59 14 57 6 57 Z" fill="#f8f4e8" stroke="#c5a059" stroke-width="0.5" />
  <line x1="32" y1="55" x2="32" y2="63" stroke="#c5a059" stroke-width="0.8" opacity="0.4" />

  <!-- Bricks (Church Building) - Refined Palette -->
  <!-- Row 1 -->
  <rect x="15" y="46" width="10" height="8" rx="1.5" fill="#d4af37" />
  <rect x="26" y="46" width="12" height="8" rx="1.5" fill="#436b47" />
  <rect x="39" y="46" width="10" height="8" rx="1.5" fill="#8b5e3c" />

  <!-- Row 2 -->
  <rect x="18" y="37" width="14" height="8" rx="1.5" fill="#8b5e3c" />
  <rect x="33" y="37" width="13" height="8" rx="1.5" fill="#d4af37" />

  <!-- Row 3 -->
  <rect x="22" y="28" width="10" height="8" rx="1.5" fill="#436b47" />
  <rect x="33" y="28" width="9" height="8" rx="1.5" fill="#8b5e3c" />

  <!-- Row 4 -->
  <rect x="26" y="19" width="12" height="8" rx="1.5" fill="#d4af37" />

  <!-- Cross -->
  <rect x="30.5" y="7" width="3" height="12" rx="1" fill="#d4af37" />
  <rect x="26" y="10" width="12" height="3" rx="1" fill="#d4af37" />
</svg>
