<svg viewBox="0 0 200 200" xmlns="http://www.w3.org/2000/svg">
  <g id="Foundation-Word">
    <rect x="50" y="160" width="100" height="12" rx="2" fill="#54280a" />
    <rect x="54" y="156" width="92" height="7" rx="1" fill="#FFFEF9" opacity="0.95" />
  </g>
  <g id="Seven-Seamless-Bricks-232">
    <rect x="70" y="136" width="30" height="22" fill="#B45309" />
    <rect x="100" y="136" width="30" height="22" fill="#92400E" />
    <rect x="55" y="114" width="30" height="22" fill="#D97706" />
    <rect x="85" y="114" width="30" height="22" fill="#F59E0B" />
    <rect x="115" y="114" width="30" height="22" fill="#D97706" />
    <rect x="70" y="92" width="30" height="22" fill="#B45309" />
    <rect x="100" y="92" width="30" height="22" fill="#F59E0B" />
  </g>
  <g id="Centered-Cross">
    <rect x="96.5" y="101" width="7" height="46" rx="0.5" fill="white" />
    <rect x="84" y="116" width="32" height="7" rx="0.5" fill="white" />
  </g>
  <g id="Holy-Spirit-Flame">
    <path d="M100 92 C115 65 100 35 100 35 C100 35 85 65 100 92 Z" fill="#F59E0B" />
    <path d="M100 85 C108 68 100 50 100 50 C100 50 92 68 100 85 Z" fill="#FFFFFF" opacity="0.95" />
  </g>
</svg>
