<svg xmlns="http://www.w3.org/2000/svg" width="512" height="512" fill="none" viewBox="0 0 64 64"><path fill="#fff" d="M0 0h64v64H0z"/><g transform="translate(0 2)"><path fill="#2d1e16" d="M4 56c8 0 18 2 28 6 10-4 20-6 28-6v3c-8 0-18 2-28 6-10-4-20-6-28-6Z"/><path fill="#f8f4e8" stroke="#c5a059" stroke-width=".5" d="M6 54c8 0 17 2 26 6 9-4 18-6 26-6v3c-8 0-17 2-26 6-9-4-18-6-26-6Z"/><path stroke="#c5a059" stroke-width=".8" d="M32 55v8" opacity=".4"/><rect width="10" height="8" x="15" y="46" fill="#d4af37" rx="1.5"/><rect width="12" height="8" x="26" y="46" fill="#436b47" rx="1.5"/><rect width="10" height="8" x="39" y="46" fill="#8b5e3c" rx="1.5"/><rect width="14" height="8" x="18" y="37" fill="#8b5e3c" rx="1.5"/><rect width="13" height="8" x="33" y="37" fill="#d4af37" rx="1.5"/><rect width="10" height="8" x="22" y="28" fill="#436b47" rx="1.5"/><rect width="9" height="8" x="33" y="28" fill="#8b5e3c" rx="1.5"/><rect width="12" height="8" x="26" y="19" fill="#d4af37" rx="1.5"/><rect width="3" height="12" x="30.5" y="7" fill="#d4af37" rx="1"/><rect width="12" height="3" x="26" y="10" fill="#d4af37" rx="1"/></g></svg>